<svg width="45" height="47" viewBox="0 0 45 47" fill="none" xmlns="http://www.w3.org/2000/svg">
<rect x="0.666626" width="44" height="47" fill="#323238"/>
<path d="M33.8006 23.5716C33.8006 17.042 28.8464 11.75 22.7336 11.75C16.6208 11.75 11.6666 17.042 11.6666 23.5716C11.6666 29.4731 15.713 34.3634 21.0044 35.25V26.9888H18.1944V23.5716H21.0044V20.9671C21.0044 18.0048 22.6558 16.3678 25.1848 16.3678C26.3953 16.3678 27.6619 16.5987 27.6619 16.5987V19.5079H26.2656C24.8908 19.5079 24.4629 20.4199 24.4629 21.355V23.5716H27.5322L27.0416 26.9888H24.4629V35.25C29.7543 34.3634 33.8006 29.4731 33.8006 23.5716Z" fill="white"/>
</svg>
